<?xml version="1.0" encoding="UTF-8"?>
<svg xmlns="http://www.w3.org/2000/svg" width="940" height="240" viewBox="0 0 940 240" role="img" aria-labelledby="title desc">
  <title id="title">RohanSubba7's GitHub activity constellation</title>
  <desc id="desc">An animated constellation created from 11 contributions during the last year.</desc>
  <defs>
    <linearGradient id="sky" x1="0" y1="0" x2="1" y2="1"><stop stop-color="#141210"/><stop offset=".55" stop-color="#24201c"/><stop offset="1" stop-color="#181512"/></linearGradient>
    <linearGradient id="trail" x1="0" y1="0" x2="1" y2="0"><stop stop-color="#8a6b3f"/><stop offset=".5" stop-color="#fff2bf"/><stop offset="1" stop-color="#b99355"/></linearGradient>
    <filter id="glow"><feGaussianBlur stdDeviation="3" result="blur"/><feMerge><feMergeNode in="blur"/><feMergeNode in="SourceGraphic"/></feMerge></filter>
  </defs>
  <style>
    .label{font:600 17px system-ui,sans-serif;fill:#f4f1eb}.meta{font:12px system-ui,sans-serif;fill:#a99e91}.star{opacity:.48}.active{filter:url(#glow);animation:twinkle 3.8s ease-in-out infinite alternate}.trail{stroke-dasharray:9 18;animation:travel 7s linear infinite}@keyframes travel{to{stroke-dashoffset:-270}}@keyframes twinkle{to{opacity:.72;transform:scale(.84);transform-origin:center}}@media(prefers-reduced-motion:reduce){.active,.trail{animation:none}}
  </style>
  <rect width="100%" height="100%" rx="18" fill="url(#sky)"/>
  <circle cx="820" cy="25" r="120" fill="#d6b16d" opacity=".035"/>
  <text x="32" y="32" class="label">Activity constellation</text>
  <text x="908" y="32" text-anchor="end" class="meta">11 contributions · last 12 months</text>
  <path d="M 677.8,138.0 L 694.0,78.0 L 823.6,78.0" fill="none" stroke="#8a6b3f" stroke-width="1" opacity=".2"/><path class="trail" d="M 677.8,138.0 L 694.0,78.0 L 823.6,78.0" fill="none" stroke="url(#trail)" stroke-width="2.2" stroke-linecap="round" filter="url(#glow)"/>
  <g><circle cx="46.0" cy="58.0" r="1.7" fill="#302c29" class="star"><title>2025-08-31: 0 contributions</title></circle><circle cx="46.0" cy="78.0" r="1.7" fill="#302c29" class="star"><title>2025-09-01: 0 contributions</title></circle><circle cx="46.0" cy="98.0" r="1.7" fill="#302c29" class="star"><title>2025-09-02: 0 contributions</title></circle><circle cx="46.0" cy="118.0" r="1.7" fill="#302c29" class="star"><title>2025-09-03: 0 contributions</title></circle><circle cx="46.0" cy="138.0" r="1.7" fill="#302c29" class="star"><title>2025-09-04: 0 contributions</title></circle><circle cx="46.0" cy="158.0" r="1.7" fill="#302c29" class="star"><title>2025-09-05: 0 contributions</title></circle><circle cx="46.0" cy="178.0" r="1.7" fill="#302c29" class="star"><title>2025-09-06: 0 contributions</title></circle><circle cx="62.2" cy="58.0" r="1.7" fill="#302c29" class="star"><title>2025-09-07: 0 contributions</title></circle><circle cx="62.2" cy="78.0" r="1.7" fill="#302c29" class="star"><title>2025-09-08: 0 contributions</title></circle><circle cx="62.2" cy="98.0" r="1.7" fill="#302c29" class="star"><title>2025-09-09: 0 contributions</title></circle><circle cx="62.2" cy="118.0" r="1.7" fill="#302c29" class="star"><title>2025-09-10: 0 contributions</title></circle><circle cx="62.2" cy="138.0" r="1.7" fill="#302c29" class="star"><title>2025-09-11: 0 contributions</title></circle><circle cx="62.2" cy="158.0" r="1.7" fill="#302c29" class="star"><title>2025-09-12: 0 contributions</title></circle><circle cx="62.2" cy="178.0" r="1.7" fill="#302c29" class="star"><title>2025-09-13: 0 contributions</title></circle><circle cx="78.4" cy="58.0" r="1.7" fill="#302c29" class="star"><title>2025-09-14: 0 contributions</title></circle><circle cx="78.4" cy="78.0" r="1.7" fill="#302c29" class="star"><title>2025-09-15: 0 contributions</title></circle><circle cx="78.4" cy="98.0" r="1.7" fill="#302c29" class="star"><title>2025-09-16: 0 contributions</title></circle><circle cx="78.4" cy="118.0" r="1.7" fill="#302c29" class="star"><title>2025-09-17: 0 contributions</title></circle><circle cx="78.4" cy="138.0" r="1.7" fill="#302c29" class="star"><title>2025-09-18: 0 contributions</title></circle><circle cx="78.4" cy="158.0" r="1.7" fill="#302c29" class="star"><title>2025-09-19: 0 contributions</title></circle><circle cx="78.4" cy="178.0" r="1.7" fill="#302c29" class="star"><title>2025-09-20: 0 contributions</title></circle><circle cx="94.6" cy="58.0" r="1.7" fill="#302c29" class="star"><title>2025-09-21: 0 contributions</title></circle><circle cx="94.6" cy="78.0" r="1.7" fill="#302c29" class="star"><title>2025-09-22: 0 contributions</title></circle><circle cx="94.6" cy="98.0" r="1.7" fill="#302c29" class="star"><title>2025-09-23: 0 contributions</title></circle><circle cx="94.6" cy="118.0" r="1.7" fill="#302c29" class="star"><title>2025-09-24: 0 contributions</title></circle><circle cx="94.6" cy="138.0" r="1.7" fill="#302c29" class="star"><title>2025-09-25: 0 contributions</title></circle><circle cx="94.6" cy="158.0" r="1.7" fill="#302c29" class="star"><title>2025-09-26: 0 contributions</title></circle><circle cx="94.6" cy="178.0" r="1.7" fill="#302c29" class="star"><title>2025-09-27: 0 contributions</title></circle><circle cx="110.8" cy="58.0" r="1.7" fill="#302c29" class="star"><title>2025-09-28: 0 contributions</title></circle><circle cx="110.8" cy="78.0" r="1.7" fill="#302c29" class="star"><title>2025-09-29: 0 contributions</title></circle><circle cx="110.8" cy="98.0" r="1.7" fill="#302c29" class="star"><title>2025-09-30: 0 contributions</title></circle><circle cx="110.8" cy="118.0" r="1.7" fill="#302c29" class="star"><title>2025-10-01: 0 contributions</title></circle><circle cx="110.8" cy="138.0" r="1.7" fill="#302c29" class="star"><title>2025-10-02: 0 contributions</title></circle><circle cx="110.8" cy="158.0" r="1.7" fill="#302c29" class="star"><title>2025-10-03: 0 contributions</title></circle><circle cx="110.8" cy="178.0" r="1.7" fill="#302c29" class="star"><title>2025-10-04: 0 contributions</title></circle><circle cx="127.0" cy="58.0" r="1.7" fill="#302c29" class="star"><title>2025-10-05: 0 contributions</title></circle><circle cx="127.0" cy="78.0" r="1.7" fill="#302c29" class="star"><title>2025-10-06: 0 contributions</title></circle><circle cx="127.0" cy="98.0" r="1.7" fill="#302c29" class="star"><title>2025-10-07: 0 contributions</title></circle><circle cx="127.0" cy="118.0" r="1.7" fill="#302c29" class="star"><title>2025-10-08: 0 contributions</title></circle><circle cx="127.0" cy="138.0" r="1.7" fill="#302c29" class="star"><title>2025-10-09: 0 contributions</title></circle><circle cx="127.0" cy="158.0" r="1.7" fill="#302c29" class="star"><title>2025-10-10: 0 contributions</title></circle><circle cx="127.0" cy="178.0" r="1.7" fill="#302c29" class="star"><title>2025-10-11: 0 contributions</title></circle><circle cx="143.2" cy="58.0" r="1.7" fill="#302c29" class="star"><title>2025-10-12: 0 contributions</title></circle><circle cx="143.2" cy="78.0" r="1.7" fill="#302c29" class="star"><title>2025-10-13: 0 contributions</title></circle><circle cx="143.2" cy="98.0" r="1.7" fill="#302c29" class="star"><title>2025-10-14: 0 contributions</title></circle><circle cx="143.2" cy="118.0" r="1.7" fill="#302c29" class="star"><title>2025-10-15: 0 contributions</title></circle><circle cx="143.2" cy="138.0" r="1.7" fill="#302c29" class="star"><title>2025-10-16: 0 contributions</title></circle><circle cx="143.2" cy="158.0" r="1.7" fill="#302c29" class="star"><title>2025-10-17: 0 contributions</title></circle><circle cx="143.2" cy="178.0" r="1.7" fill="#302c29" class="star"><title>2025-10-18: 0 contributions</title></circle><circle cx="159.4" cy="58.0" r="1.7" fill="#302c29" class="star"><title>2025-10-19: 0 contributions</title></circle><circle cx="159.4" cy="78.0" r="1.7" fill="#302c29" class="star"><title>2025-10-20: 0 contributions</title></circle><circle cx="159.4" cy="98.0" r="1.7" fill="#302c29" class="star"><title>2025-10-21: 0 contributions</title></circle><circle cx="159.4" cy="118.0" r="1.7" fill="#302c29" class="star"><title>2025-10-22: 0 contributions</title></circle><circle cx="159.4" cy="138.0" r="1.7" fill="#302c29" class="star"><title>2025-10-23: 0 contributions</title></circle><circle cx="159.4" cy="158.0" r="1.7" fill="#302c29" class="star"><title>2025-10-24: 0 contributions</title></circle><circle cx="159.4" cy="178.0" r="1.7" fill="#302c29" class="star"><title>2025-10-25: 0 contributions</title></circle><circle cx="175.6" cy="58.0" r="1.7" fill="#302c29" class="star"><title>2025-10-26: 0 contributions</title></circle><circle cx="175.6" cy="78.0" r="1.7" fill="#302c29" class="star"><title>2025-10-27: 0 contributions</title></circle><circle cx="175.6" cy="98.0" r="1.7" fill="#302c29" class="star"><title>2025-10-28: 0 contributions</title></circle><circle cx="175.6" cy="118.0" r="1.7" fill="#302c29" class="star"><title>2025-10-29: 0 contributions</title></circle><circle cx="175.6" cy="138.0" r="1.7" fill="#302c29" class="star"><title>2025-10-30: 0 contributions</title></circle><circle cx="175.6" cy="158.0" r="1.7" fill="#302c29" class="star"><title>2025-10-31: 0 contributions</title></circle><circle cx="175.6" cy="178.0" r="1.7" fill="#302c29" class="star"><title>2025-11-01: 0 contributions</title></circle><circle cx="191.8" cy="58.0" r="1.7" fill="#302c29" class="star"><title>2025-11-02: 0 contributions</title></circle><circle cx="191.8" cy="78.0" r="1.7" fill="#302c29" class="star"><title>2025-11-03: 0 contributions</title></circle><circle cx="191.8" cy="98.0" r="1.7" fill="#302c29" class="star"><title>2025-11-04: 0 contributions</title></circle><circle cx="191.8" cy="118.0" r="1.7" fill="#302c29" class="star"><title>2025-11-05: 0 contributions</title></circle><circle cx="191.8" cy="138.0" r="1.7" fill="#302c29" class="star"><title>2025-11-06: 0 contributions</title></circle><circle cx="191.8" cy="158.0" r="1.7" fill="#302c29" class="star"><title>2025-11-07: 0 contributions</title></circle><circle cx="191.8" cy="178.0" r="1.7" fill="#302c29" class="star"><title>2025-11-08: 0 contributions</title></circle><circle cx="208.0" cy="58.0" r="1.7" fill="#302c29" class="star"><title>2025-11-09: 0 contributions</title></circle><circle cx="208.0" cy="78.0" r="1.7" fill="#302c29" class="star"><title>2025-11-10: 0 contributions</title></circle><circle cx="208.0" cy="98.0" r="1.7" fill="#302c29" class="star"><title>2025-11-11: 0 contributions</title></circle><circle cx="208.0" cy="118.0" r="1.7" fill="#302c29" class="star"><title>2025-11-12: 0 contributions</title></circle><circle cx="208.0" cy="138.0" r="1.7" fill="#302c29" class="star"><title>2025-11-13: 0 contributions</title></circle><circle cx="208.0" cy="158.0" r="1.7" fill="#302c29" class="star"><title>2025-11-14: 0 contributions</title></circle><circle cx="208.0" cy="178.0" r="1.7" fill="#302c29" class="star"><title>2025-11-15: 0 contributions</title></circle><circle cx="224.2" cy="58.0" r="1.7" fill="#302c29" class="star"><title>2025-11-16: 0 contributions</title></circle><circle cx="224.2" cy="78.0" r="1.7" fill="#302c29" class="star"><title>2025-11-17: 0 contributions</title></circle><circle cx="224.2" cy="98.0" r="1.7" fill="#302c29" class="star"><title>2025-11-18: 0 contributions</title></circle><circle cx="224.2" cy="118.0" r="1.7" fill="#302c29" class="star"><title>2025-11-19: 0 contributions</title></circle><circle cx="224.2" cy="138.0" r="1.7" fill="#302c29" class="star"><title>2025-11-20: 0 contributions</title></circle><circle cx="224.2" cy="158.0" r="1.7" fill="#302c29" class="star"><title>2025-11-21: 0 contributions</title></circle><circle cx="224.2" cy="178.0" r="1.7" fill="#302c29" class="star"><title>2025-11-22: 0 contributions</title></circle><circle cx="240.4" cy="58.0" r="1.7" fill="#302c29" class="star"><title>2025-11-23: 0 contributions</title></circle><circle cx="240.4" cy="78.0" r="1.7" fill="#302c29" class="star"><title>2025-11-24: 0 contributions</title></circle><circle cx="240.4" cy="98.0" r="1.7" fill="#302c29" class="star"><title>2025-11-25: 0 contributions</title></circle><circle cx="240.4" cy="118.0" r="1.7" fill="#302c29" class="star"><title>2025-11-26: 0 contributions</title></circle><circle cx="240.4" cy="138.0" r="1.7" fill="#302c29" class="star"><title>2025-11-27: 0 contributions</title></circle><circle cx="240.4" cy="158.0" r="1.7" fill="#302c29" class="star"><title>2025-11-28: 0 contributions</title></circle><circle cx="240.4" cy="178.0" r="1.7" fill="#302c29" class="star"><title>2025-11-29: 0 contributions</title></circle><circle cx="256.6" cy="58.0" r="1.7" fill="#302c29" class="star"><title>2025-11-30: 0 contributions</title></circle><circle cx="256.6" cy="78.0" r="1.7" fill="#302c29" class="star"><title>2025-12-01: 0 contributions</title></circle><circle cx="256.6" cy="98.0" r="1.7" fill="#302c29" class="star"><title>2025-12-02: 0 contributions</title></circle><circle cx="256.6" cy="118.0" r="1.7" fill="#302c29" class="star"><title>2025-12-03: 0 contributions</title></circle><circle cx="256.6" cy="138.0" r="1.7" fill="#302c29" class="star"><title>2025-12-04: 0 contributions</title></circle><circle cx="256.6" cy="158.0" r="1.7" fill="#302c29" class="star"><title>2025-12-05: 0 contributions</title></circle><circle cx="256.6" cy="178.0" r="1.7" fill="#302c29" class="star"><title>2025-12-06: 0 contributions</title></circle><circle cx="272.8" cy="58.0" r="1.7" fill="#302c29" class="star"><title>2025-12-07: 0 contributions</title></circle><circle cx="272.8" cy="78.0" r="1.7" fill="#302c29" class="star"><title>2025-12-08: 0 contributions</title></circle><circle cx="272.8" cy="98.0" r="1.7" fill="#302c29" class="star"><title>2025-12-09: 0 contributions</title></circle><circle cx="272.8" cy="118.0" r="1.7" fill="#302c29" class="star"><title>2025-12-10: 0 contributions</title></circle><circle cx="272.8" cy="138.0" r="1.7" fill="#302c29" class="star"><title>2025-12-11: 0 contributions</title></circle><circle cx="272.8" cy="158.0" r="1.7" fill="#302c29" class="star"><title>2025-12-12: 0 contributions</title></circle><circle cx="272.8" cy="178.0" r="1.7" fill="#302c29" class="star"><title>2025-12-13: 0 contributions</title></circle><circle cx="289.0" cy="58.0" r="1.7" fill="#302c29" class="star"><title>2025-12-14: 0 contributions</title></circle><circle cx="289.0" cy="78.0" r="1.7" fill="#302c29" class="star"><title>2025-12-15: 0 contributions</title></circle><circle cx="289.0" cy="98.0" r="1.7" fill="#302c29" class="star"><title>2025-12-16: 0 contributions</title></circle><circle cx="289.0" cy="118.0" r="1.7" fill="#302c29" class="star"><title>2025-12-17: 0 contributions</title></circle><circle cx="289.0" cy="138.0" r="1.7" fill="#302c29" class="star"><title>2025-12-18: 0 contributions</title></circle><circle cx="289.0" cy="158.0" r="1.7" fill="#302c29" class="star"><title>2025-12-19: 0 contributions</title></circle><circle cx="289.0" cy="178.0" r="1.7" fill="#302c29" class="star"><title>2025-12-20: 0 contributions</title></circle><circle cx="305.2" cy="58.0" r="1.7" fill="#302c29" class="star"><title>2025-12-21: 0 contributions</title></circle><circle cx="305.2" cy="78.0" r="1.7" fill="#302c29" class="star"><title>2025-12-22: 0 contributions</title></circle><circle cx="305.2" cy="98.0" r="1.7" fill="#302c29" class="star"><title>2025-12-23: 0 contributions</title></circle><circle cx="305.2" cy="118.0" r="1.7" fill="#302c29" class="star"><title>2025-12-24: 0 contributions</title></circle><circle cx="305.2" cy="138.0" r="1.7" fill="#302c29" class="star"><title>2025-12-25: 0 contributions</title></circle><circle cx="305.2" cy="158.0" r="1.7" fill="#302c29" class="star"><title>2025-12-26: 0 contributions</title></circle><circle cx="305.2" cy="178.0" r="1.7" fill="#302c29" class="star"><title>2025-12-27: 0 contributions</title></circle><circle cx="321.4" cy="58.0" r="1.7" fill="#302c29" class="star"><title>2025-12-28: 0 contributions</title></circle><circle cx="321.4" cy="78.0" r="1.7" fill="#302c29" class="star"><title>2025-12-29: 0 contributions</title></circle><circle cx="321.4" cy="98.0" r="1.7" fill="#302c29" class="star"><title>2025-12-30: 0 contributions</title></circle><circle cx="321.4" cy="118.0" r="1.7" fill="#302c29" class="star"><title>2025-12-31: 0 contributions</title></circle><circle cx="321.4" cy="138.0" r="1.7" fill="#302c29" class="star"><title>2026-01-01: 0 contributions</title></circle><circle cx="321.4" cy="158.0" r="1.7" fill="#302c29" class="star"><title>2026-01-02: 0 contributions</title></circle><circle cx="321.4" cy="178.0" r="1.7" fill="#302c29" class="star"><title>2026-01-03: 0 contributions</title></circle><circle cx="337.6" cy="58.0" r="1.7" fill="#302c29" class="star"><title>2026-01-04: 0 contributions</title></circle><circle cx="337.6" cy="78.0" r="1.7" fill="#302c29" class="star"><title>2026-01-05: 0 contributions</title></circle><circle cx="337.6" cy="98.0" r="1.7" fill="#302c29" class="star"><title>2026-01-06: 0 contributions</title></circle><circle cx="337.6" cy="118.0" r="1.7" fill="#302c29" class="star"><title>2026-01-07: 0 contributions</title></circle><circle cx="337.6" cy="138.0" r="1.7" fill="#302c29" class="star"><title>2026-01-08: 0 contributions</title></circle><circle cx="337.6" cy="158.0" r="1.7" fill="#302c29" class="star"><title>2026-01-09: 0 contributions</title></circle><circle cx="337.6" cy="178.0" r="1.7" fill="#302c29" class="star"><title>2026-01-10: 0 contributions</title></circle><circle cx="353.8" cy="58.0" r="1.7" fill="#302c29" class="star"><title>2026-01-11: 0 contributions</title></circle><circle cx="353.8" cy="78.0" r="1.7" fill="#302c29" class="star"><title>2026-01-12: 0 contributions</title></circle><circle cx="353.8" cy="98.0" r="1.7" fill="#302c29" class="star"><title>2026-01-13: 0 contributions</title></circle><circle cx="353.8" cy="118.0" r="1.7" fill="#302c29" class="star"><title>2026-01-14: 0 contributions</title></circle><circle cx="353.8" cy="138.0" r="1.7" fill="#302c29" class="star"><title>2026-01-15: 0 contributions</title></circle><circle cx="353.8" cy="158.0" r="1.7" fill="#302c29" class="star"><title>2026-01-16: 0 contributions</title></circle><circle cx="353.8" cy="178.0" r="1.7" fill="#302c29" class="star"><title>2026-01-17: 0 contributions</title></circle><circle cx="370.0" cy="58.0" r="1.7" fill="#302c29" class="star"><title>2026-01-18: 0 contributions</title></circle><circle cx="370.0" cy="78.0" r="1.7" fill="#302c29" class="star"><title>2026-01-19: 0 contributions</title></circle><circle cx="370.0" cy="98.0" r="1.7" fill="#302c29" class="star"><title>2026-01-20: 0 contributions</title></circle><circle cx="370.0" cy="118.0" r="1.7" fill="#302c29" class="star"><title>2026-01-21: 0 contributions</title></circle><circle cx="370.0" cy="138.0" r="1.7" fill="#302c29" class="star"><title>2026-01-22: 0 contributions</title></circle><circle cx="370.0" cy="158.0" r="1.7" fill="#302c29" class="star"><title>2026-01-23: 0 contributions</title></circle><circle cx="370.0" cy="178.0" r="1.7" fill="#302c29" class="star"><title>2026-01-24: 0 contributions</title></circle><circle cx="386.2" cy="58.0" r="1.7" fill="#302c29" class="star"><title>2026-01-25: 0 contributions</title></circle><circle cx="386.2" cy="78.0" r="1.7" fill="#302c29" class="star"><title>2026-01-26: 0 contributions</title></circle><circle cx="386.2" cy="98.0" r="1.7" fill="#302c29" class="star"><title>2026-01-27: 0 contributions</title></circle><circle cx="386.2" cy="118.0" r="1.7" fill="#302c29" class="star"><title>2026-01-28: 0 contributions</title></circle><circle cx="386.2" cy="138.0" r="1.7" fill="#302c29" class="star"><title>2026-01-29: 0 contributions</title></circle><circle cx="386.2" cy="158.0" r="1.7" fill="#302c29" class="star"><title>2026-01-30: 0 contributions</title></circle><circle cx="386.2" cy="178.0" r="1.7" fill="#302c29" class="star"><title>2026-01-31: 0 contributions</title></circle><circle cx="402.4" cy="58.0" r="1.7" fill="#302c29" class="star"><title>2026-02-01: 0 contributions</title></circle><circle cx="402.4" cy="78.0" r="1.7" fill="#302c29" class="star"><title>2026-02-02: 0 contributions</title></circle><circle cx="402.4" cy="98.0" r="1.7" fill="#302c29" class="star"><title>2026-02-03: 0 contributions</title></circle><circle cx="402.4" cy="118.0" r="1.7" fill="#302c29" class="star"><title>2026-02-04: 0 contributions</title></circle><circle cx="402.4" cy="138.0" r="1.7" fill="#302c29" class="star"><title>2026-02-05: 0 contributions</title></circle><circle cx="402.4" cy="158.0" r="1.7" fill="#302c29" class="star"><title>2026-02-06: 0 contributions</title></circle><circle cx="402.4" cy="178.0" r="1.7" fill="#302c29" class="star"><title>2026-02-07: 0 contributions</title></circle><circle cx="418.6" cy="58.0" r="1.7" fill="#302c29" class="star"><title>2026-02-08: 0 contributions</title></circle><circle cx="418.6" cy="78.0" r="1.7" fill="#302c29" class="star"><title>2026-02-09: 0 contributions</title></circle><circle cx="418.6" cy="98.0" r="1.7" fill="#302c29" class="star"><title>2026-02-10: 0 contributions</title></circle><circle cx="418.6" cy="118.0" r="1.7" fill="#302c29" class="star"><title>2026-02-11: 0 contributions</title></circle><circle cx="418.6" cy="138.0" r="1.7" fill="#302c29" class="star"><title>2026-02-12: 0 contributions</title></circle><circle cx="418.6" cy="158.0" r="1.7" fill="#302c29" class="star"><title>2026-02-13: 0 contributions</title></circle><circle cx="418.6" cy="178.0" r="1.7" fill="#302c29" class="star"><title>2026-02-14: 0 contributions</title></circle><circle cx="434.8" cy="58.0" r="1.7" fill="#302c29" class="star"><title>2026-02-15: 0 contributions</title></circle><circle cx="434.8" cy="78.0" r="1.7" fill="#302c29" class="star"><title>2026-02-16: 0 contributions</title></circle><circle cx="434.8" cy="98.0" r="1.7" fill="#302c29" class="star"><title>2026-02-17: 0 contributions</title></circle><circle cx="434.8" cy="118.0" r="1.7" fill="#302c29" class="star"><title>2026-02-18: 0 contributions</title></circle><circle cx="434.8" cy="138.0" r="1.7" fill="#302c29" class="star"><title>2026-02-19: 0 contributions</title></circle><circle cx="434.8" cy="158.0" r="1.7" fill="#302c29" class="star"><title>2026-02-20: 0 contributions</title></circle><circle cx="434.8" cy="178.0" r="1.7" fill="#302c29" class="star"><title>2026-02-21: 0 contributions</title></circle><circle cx="451.0" cy="58.0" r="1.7" fill="#302c29" class="star"><title>2026-02-22: 0 contributions</title></circle><circle cx="451.0" cy="78.0" r="1.7" fill="#302c29" class="star"><title>2026-02-23: 0 contributions</title></circle><circle cx="451.0" cy="98.0" r="1.7" fill="#302c29" class="star"><title>2026-02-24: 0 contributions</title></circle><circle cx="451.0" cy="118.0" r="1.7" fill="#302c29" class="star"><title>2026-02-25: 0 contributions</title></circle><circle cx="451.0" cy="138.0" r="1.7" fill="#302c29" class="star"><title>2026-02-26: 0 contributions</title></circle><circle cx="451.0" cy="158.0" r="1.7" fill="#302c29" class="star"><title>2026-02-27: 0 contributions</title></circle><circle cx="451.0" cy="178.0" r="1.7" fill="#302c29" class="star"><title>2026-02-28: 0 contributions</title></circle><circle cx="467.2" cy="58.0" r="1.7" fill="#302c29" class="star"><title>2026-03-01: 0 contributions</title></circle><circle cx="467.2" cy="78.0" r="1.7" fill="#302c29" class="star"><title>2026-03-02: 0 contributions</title></circle><circle cx="467.2" cy="98.0" r="1.7" fill="#302c29" class="star"><title>2026-03-03: 0 contributions</title></circle><circle cx="467.2" cy="118.0" r="1.7" fill="#302c29" class="star"><title>2026-03-04: 0 contributions</title></circle><circle cx="467.2" cy="138.0" r="1.7" fill="#302c29" class="star"><title>2026-03-05: 0 contributions</title></circle><circle cx="467.2" cy="158.0" r="1.7" fill="#302c29" class="star"><title>2026-03-06: 0 contributions</title></circle><circle cx="467.2" cy="178.0" r="1.7" fill="#302c29" class="star"><title>2026-03-07: 0 contributions</title></circle><circle cx="483.4" cy="58.0" r="1.7" fill="#302c29" class="star"><title>2026-03-08: 0 contributions</title></circle><circle cx="483.4" cy="78.0" r="1.7" fill="#302c29" class="star"><title>2026-03-09: 0 contributions</title></circle><circle cx="483.4" cy="98.0" r="1.7" fill="#302c29" class="star"><title>2026-03-10: 0 contributions</title></circle><circle cx="483.4" cy="118.0" r="1.7" fill="#302c29" class="star"><title>2026-03-11: 0 contributions</title></circle><circle cx="483.4" cy="138.0" r="1.7" fill="#302c29" class="star"><title>2026-03-12: 0 contributions</title></circle><circle cx="483.4" cy="158.0" r="1.7" fill="#302c29" class="star"><title>2026-03-13: 0 contributions</title></circle><circle cx="483.4" cy="178.0" r="1.7" fill="#302c29" class="star"><title>2026-03-14: 0 contributions</title></circle><circle cx="499.6" cy="58.0" r="1.7" fill="#302c29" class="star"><title>2026-03-15: 0 contributions</title></circle><circle cx="499.6" cy="78.0" r="1.7" fill="#302c29" class="star"><title>2026-03-16: 0 contributions</title></circle><circle cx="499.6" cy="98.0" r="1.7" fill="#302c29" class="star"><title>2026-03-17: 0 contributions</title></circle><circle cx="499.6" cy="118.0" r="1.7" fill="#302c29" class="star"><title>2026-03-18: 0 contributions</title></circle><circle cx="499.6" cy="138.0" r="1.7" fill="#302c29" class="star"><title>2026-03-19: 0 contributions</title></circle><circle cx="499.6" cy="158.0" r="1.7" fill="#302c29" class="star"><title>2026-03-20: 0 contributions</title></circle><circle cx="499.6" cy="178.0" r="1.7" fill="#302c29" class="star"><title>2026-03-21: 0 contributions</title></circle><circle cx="515.8" cy="58.0" r="1.7" fill="#302c29" class="star"><title>2026-03-22: 0 contributions</title></circle><circle cx="515.8" cy="78.0" r="1.7" fill="#302c29" class="star"><title>2026-03-23: 0 contributions</title></circle><circle cx="515.8" cy="98.0" r="1.7" fill="#302c29" class="star"><title>2026-03-24: 0 contributions</title></circle><circle cx="515.8" cy="118.0" r="1.7" fill="#302c29" class="star"><title>2026-03-25: 0 contributions</title></circle><circle cx="515.8" cy="138.0" r="1.7" fill="#302c29" class="star"><title>2026-03-26: 0 contributions</title></circle><circle cx="515.8" cy="158.0" r="1.7" fill="#302c29" class="star"><title>2026-03-27: 0 contributions</title></circle><circle cx="515.8" cy="178.0" r="1.7" fill="#302c29" class="star"><title>2026-03-28: 0 contributions</title></circle><circle cx="532.0" cy="58.0" r="1.7" fill="#302c29" class="star"><title>2026-03-29: 0 contributions</title></circle><circle cx="532.0" cy="78.0" r="1.7" fill="#302c29" class="star"><title>2026-03-30: 0 contributions</title></circle><circle cx="532.0" cy="98.0" r="1.7" fill="#302c29" class="star"><title>2026-03-31: 0 contributions</title></circle><circle cx="532.0" cy="118.0" r="1.7" fill="#302c29" class="star"><title>2026-04-01: 0 contributions</title></circle><circle cx="532.0" cy="138.0" r="1.7" fill="#302c29" class="star"><title>2026-04-02: 0 contributions</title></circle><circle cx="532.0" cy="158.0" r="1.7" fill="#302c29" class="star"><title>2026-04-03: 0 contributions</title></circle><circle cx="532.0" cy="178.0" r="1.7" fill="#302c29" class="star"><title>2026-04-04: 0 contributions</title></circle><circle cx="548.2" cy="58.0" r="1.7" fill="#302c29" class="star"><title>2026-04-05: 0 contributions</title></circle><circle cx="548.2" cy="78.0" r="1.7" fill="#302c29" class="star"><title>2026-04-06: 0 contributions</title></circle><circle cx="548.2" cy="98.0" r="1.7" fill="#302c29" class="star"><title>2026-04-07: 0 contributions</title></circle><circle cx="548.2" cy="118.0" r="1.7" fill="#302c29" class="star"><title>2026-04-08: 0 contributions</title></circle><circle cx="548.2" cy="138.0" r="1.7" fill="#302c29" class="star"><title>2026-04-09: 0 contributions</title></circle><circle cx="548.2" cy="158.0" r="1.7" fill="#302c29" class="star"><title>2026-04-10: 0 contributions</title></circle><circle cx="548.2" cy="178.0" r="1.7" fill="#302c29" class="star"><title>2026-04-11: 0 contributions</title></circle><circle cx="564.4" cy="58.0" r="1.7" fill="#302c29" class="star"><title>2026-04-12: 0 contributions</title></circle><circle cx="564.4" cy="78.0" r="1.7" fill="#302c29" class="star"><title>2026-04-13: 0 contributions</title></circle><circle cx="564.4" cy="98.0" r="1.7" fill="#302c29" class="star"><title>2026-04-14: 0 contributions</title></circle><circle cx="564.4" cy="118.0" r="1.7" fill="#302c29" class="star"><title>2026-04-15: 0 contributions</title></circle><circle cx="564.4" cy="138.0" r="1.7" fill="#302c29" class="star"><title>2026-04-16: 0 contributions</title></circle><circle cx="564.4" cy="158.0" r="1.7" fill="#302c29" class="star"><title>2026-04-17: 0 contributions</title></circle><circle cx="564.4" cy="178.0" r="1.7" fill="#302c29" class="star"><title>2026-04-18: 0 contributions</title></circle><circle cx="580.6" cy="58.0" r="1.7" fill="#302c29" class="star"><title>2026-04-19: 0 contributions</title></circle><circle cx="580.6" cy="78.0" r="1.7" fill="#302c29" class="star"><title>2026-04-20: 0 contributions</title></circle><circle cx="580.6" cy="98.0" r="1.7" fill="#302c29" class="star"><title>2026-04-21: 0 contributions</title></circle><circle cx="580.6" cy="118.0" r="1.7" fill="#302c29" class="star"><title>2026-04-22: 0 contributions</title></circle><circle cx="580.6" cy="138.0" r="1.7" fill="#302c29" class="star"><title>2026-04-23: 0 contributions</title></circle><circle cx="580.6" cy="158.0" r="1.7" fill="#302c29" class="star"><title>2026-04-24: 0 contributions</title></circle><circle cx="580.6" cy="178.0" r="1.7" fill="#302c29" class="star"><title>2026-04-25: 0 contributions</title></circle><circle cx="596.8" cy="58.0" r="1.7" fill="#302c29" class="star"><title>2026-04-26: 0 contributions</title></circle><circle cx="596.8" cy="78.0" r="1.7" fill="#302c29" class="star"><title>2026-04-27: 0 contributions</title></circle><circle cx="596.8" cy="98.0" r="1.7" fill="#302c29" class="star"><title>2026-04-28: 0 contributions</title></circle><circle cx="596.8" cy="118.0" r="1.7" fill="#302c29" class="star"><title>2026-04-29: 0 contributions</title></circle><circle cx="596.8" cy="138.0" r="1.7" fill="#302c29" class="star"><title>2026-04-30: 0 contributions</title></circle><circle cx="596.8" cy="158.0" r="1.7" fill="#302c29" class="star"><title>2026-05-01: 0 contributions</title></circle><circle cx="596.8" cy="178.0" r="1.7" fill="#302c29" class="star"><title>2026-05-02: 0 contributions</title></circle><circle cx="613.0" cy="58.0" r="1.7" fill="#302c29" class="star"><title>2026-05-03: 0 contributions</title></circle><circle cx="613.0" cy="78.0" r="1.7" fill="#302c29" class="star"><title>2026-05-04: 0 contributions</title></circle><circle cx="613.0" cy="98.0" r="1.7" fill="#302c29" class="star"><title>2026-05-05: 0 contributions</title></circle><circle cx="613.0" cy="118.0" r="1.7" fill="#302c29" class="star"><title>2026-05-06: 0 contributions</title></circle><circle cx="613.0" cy="138.0" r="1.7" fill="#302c29" class="star"><title>2026-05-07: 0 contributions</title></circle><circle cx="613.0" cy="158.0" r="1.7" fill="#302c29" class="star"><title>2026-05-08: 0 contributions</title></circle><circle cx="613.0" cy="178.0" r="1.7" fill="#302c29" class="star"><title>2026-05-09: 0 contributions</title></circle><circle cx="629.2" cy="58.0" r="1.7" fill="#302c29" class="star"><title>2026-05-10: 0 contributions</title></circle><circle cx="629.2" cy="78.0" r="1.7" fill="#302c29" class="star"><title>2026-05-11: 0 contributions</title></circle><circle cx="629.2" cy="98.0" r="1.7" fill="#302c29" class="star"><title>2026-05-12: 0 contributions</title></circle><circle cx="629.2" cy="118.0" r="1.7" fill="#302c29" class="star"><title>2026-05-13: 0 contributions</title></circle><circle cx="629.2" cy="138.0" r="1.7" fill="#302c29" class="star"><title>2026-05-14: 0 contributions</title></circle><circle cx="629.2" cy="158.0" r="1.7" fill="#302c29" class="star"><title>2026-05-15: 0 contributions</title></circle><circle cx="629.2" cy="178.0" r="1.7" fill="#302c29" class="star"><title>2026-05-16: 0 contributions</title></circle><circle cx="645.4" cy="58.0" r="1.7" fill="#302c29" class="star"><title>2026-05-17: 0 contributions</title></circle><circle cx="645.4" cy="78.0" r="1.7" fill="#302c29" class="star"><title>2026-05-18: 0 contributions</title></circle><circle cx="645.4" cy="98.0" r="1.7" fill="#302c29" class="star"><title>2026-05-19: 0 contributions</title></circle><circle cx="645.4" cy="118.0" r="1.7" fill="#302c29" class="star"><title>2026-05-20: 0 contributions</title></circle><circle cx="645.4" cy="138.0" r="1.7" fill="#302c29" class="star"><title>2026-05-21: 0 contributions</title></circle><circle cx="645.4" cy="158.0" r="1.7" fill="#302c29" class="star"><title>2026-05-22: 0 contributions</title></circle><circle cx="645.4" cy="178.0" r="1.7" fill="#302c29" class="star"><title>2026-05-23: 0 contributions</title></circle><circle cx="661.6" cy="58.0" r="1.7" fill="#302c29" class="star"><title>2026-05-24: 0 contributions</title></circle><circle cx="661.6" cy="78.0" r="1.7" fill="#302c29" class="star"><title>2026-05-25: 0 contributions</title></circle><circle cx="661.6" cy="98.0" r="1.7" fill="#302c29" class="star"><title>2026-05-26: 0 contributions</title></circle><circle cx="661.6" cy="118.0" r="1.7" fill="#302c29" class="star"><title>2026-05-27: 0 contributions</title></circle><circle cx="661.6" cy="138.0" r="1.7" fill="#302c29" class="star"><title>2026-05-28: 0 contributions</title></circle><circle cx="661.6" cy="158.0" r="1.7" fill="#302c29" class="star"><title>2026-05-29: 0 contributions</title></circle><circle cx="661.6" cy="178.0" r="1.7" fill="#302c29" class="star"><title>2026-05-30: 0 contributions</title></circle><circle cx="677.8" cy="58.0" r="1.7" fill="#302c29" class="star"><title>2026-05-31: 0 contributions</title></circle><circle cx="677.8" cy="78.0" r="1.7" fill="#302c29" class="star"><title>2026-06-01: 0 contributions</title></circle><circle cx="677.8" cy="98.0" r="1.7" fill="#302c29" class="star"><title>2026-06-02: 0 contributions</title></circle><circle cx="677.8" cy="118.0" r="1.7" fill="#302c29" class="star"><title>2026-06-03: 0 contributions</title></circle><circle cx="677.8" cy="138.0" r="4.5" fill="#fff2bf" class="star active"><title>2026-06-04: 5 contributions</title></circle><circle cx="677.8" cy="158.0" r="1.7" fill="#302c29" class="star"><title>2026-06-05: 0 contributions</title></circle><circle cx="677.8" cy="178.0" r="1.7" fill="#302c29" class="star"><title>2026-06-06: 0 contributions</title></circle><circle cx="694.0" cy="58.0" r="1.7" fill="#302c29" class="star"><title>2026-06-07: 0 contributions</title></circle><circle cx="694.0" cy="78.0" r="3.4" fill="#fff2bf" class="star active"><title>2026-06-08: 1 contribution</title></circle><circle cx="694.0" cy="98.0" r="1.7" fill="#302c29" class="star"><title>2026-06-09: 0 contributions</title></circle><circle cx="694.0" cy="118.0" r="1.7" fill="#302c29" class="star"><title>2026-06-10: 0 contributions</title></circle><circle cx="694.0" cy="138.0" r="1.7" fill="#302c29" class="star"><title>2026-06-11: 0 contributions</title></circle><circle cx="694.0" cy="158.0" r="1.7" fill="#302c29" class="star"><title>2026-06-12: 0 contributions</title></circle><circle cx="694.0" cy="178.0" r="1.7" fill="#302c29" class="star"><title>2026-06-13: 0 contributions</title></circle><circle cx="710.2" cy="58.0" r="1.7" fill="#302c29" class="star"><title>2026-06-14: 0 contributions</title></circle><circle cx="710.2" cy="78.0" r="1.7" fill="#302c29" class="star"><title>2026-06-15: 0 contributions</title></circle><circle cx="710.2" cy="98.0" r="1.7" fill="#302c29" class="star"><title>2026-06-16: 0 contributions</title></circle><circle cx="710.2" cy="118.0" r="1.7" fill="#302c29" class="star"><title>2026-06-17: 0 contributions</title></circle><circle cx="710.2" cy="138.0" r="1.7" fill="#302c29" class="star"><title>2026-06-18: 0 contributions</title></circle><circle cx="710.2" cy="158.0" r="1.7" fill="#302c29" class="star"><title>2026-06-19: 0 contributions</title></circle><circle cx="710.2" cy="178.0" r="1.7" fill="#302c29" class="star"><title>2026-06-20: 0 contributions</title></circle><circle cx="726.4" cy="58.0" r="1.7" fill="#302c29" class="star"><title>2026-06-21: 0 contributions</title></circle><circle cx="726.4" cy="78.0" r="1.7" fill="#302c29" class="star"><title>2026-06-22: 0 contributions</title></circle><circle cx="726.4" cy="98.0" r="1.7" fill="#302c29" class="star"><title>2026-06-23: 0 contributions</title></circle><circle cx="726.4" cy="118.0" r="1.7" fill="#302c29" class="star"><title>2026-06-24: 0 contributions</title></circle><circle cx="726.4" cy="138.0" r="1.7" fill="#302c29" class="star"><title>2026-06-25: 0 contributions</title></circle><circle cx="726.4" cy="158.0" r="1.7" fill="#302c29" class="star"><title>2026-06-26: 0 contributions</title></circle><circle cx="726.4" cy="178.0" r="1.7" fill="#302c29" class="star"><title>2026-06-27: 0 contributions</title></circle><circle cx="742.6" cy="58.0" r="1.7" fill="#302c29" class="star"><title>2026-06-28: 0 contributions</title></circle><circle cx="742.6" cy="78.0" r="1.7" fill="#302c29" class="star"><title>2026-06-29: 0 contributions</title></circle><circle cx="742.6" cy="98.0" r="1.7" fill="#302c29" class="star"><title>2026-06-30: 0 contributions</title></circle><circle cx="742.6" cy="118.0" r="1.7" fill="#302c29" class="star"><title>2026-07-01: 0 contributions</title></circle><circle cx="742.6" cy="138.0" r="1.7" fill="#302c29" class="star"><title>2026-07-02: 0 contributions</title></circle><circle cx="742.6" cy="158.0" r="1.7" fill="#302c29" class="star"><title>2026-07-03: 0 contributions</title></circle><circle cx="742.6" cy="178.0" r="1.7" fill="#302c29" class="star"><title>2026-07-04: 0 contributions</title></circle><circle cx="758.8" cy="58.0" r="1.7" fill="#302c29" class="star"><title>2026-07-05: 0 contributions</title></circle><circle cx="758.8" cy="78.0" r="1.7" fill="#302c29" class="star"><title>2026-07-06: 0 contributions</title></circle><circle cx="758.8" cy="98.0" r="1.7" fill="#302c29" class="star"><title>2026-07-07: 0 contributions</title></circle><circle cx="758.8" cy="118.0" r="1.7" fill="#302c29" class="star"><title>2026-07-08: 0 contributions</title></circle><circle cx="758.8" cy="138.0" r="1.7" fill="#302c29" class="star"><title>2026-07-09: 0 contributions</title></circle><circle cx="758.8" cy="158.0" r="1.7" fill="#302c29" class="star"><title>2026-07-10: 0 contributions</title></circle><circle cx="758.8" cy="178.0" r="1.7" fill="#302c29" class="star"><title>2026-07-11: 0 contributions</title></circle><circle cx="775.0" cy="58.0" r="1.7" fill="#302c29" class="star"><title>2026-07-12: 0 contributions</title></circle><circle cx="775.0" cy="78.0" r="1.7" fill="#302c29" class="star"><title>2026-07-13: 0 contributions</title></circle><circle cx="775.0" cy="98.0" r="1.7" fill="#302c29" class="star"><title>2026-07-14: 0 contributions</title></circle><circle cx="775.0" cy="118.0" r="1.7" fill="#302c29" class="star"><title>2026-07-15: 0 contributions</title></circle><circle cx="775.0" cy="138.0" r="1.7" fill="#302c29" class="star"><title>2026-07-16: 0 contributions</title></circle><circle cx="775.0" cy="158.0" r="1.7" fill="#302c29" class="star"><title>2026-07-17: 0 contributions</title></circle><circle cx="775.0" cy="178.0" r="1.7" fill="#302c29" class="star"><title>2026-07-18: 0 contributions</title></circle><circle cx="791.2" cy="58.0" r="1.7" fill="#302c29" class="star"><title>2026-07-19: 0 contributions</title></circle><circle cx="791.2" cy="78.0" r="1.7" fill="#302c29" class="star"><title>2026-07-20: 0 contributions</title></circle><circle cx="791.2" cy="98.0" r="1.7" fill="#302c29" class="star"><title>2026-07-21: 0 contributions</title></circle><circle cx="791.2" cy="118.0" r="1.7" fill="#302c29" class="star"><title>2026-07-22: 0 contributions</title></circle><circle cx="791.2" cy="138.0" r="1.7" fill="#302c29" class="star"><title>2026-07-23: 0 contributions</title></circle><circle cx="791.2" cy="158.0" r="1.7" fill="#302c29" class="star"><title>2026-07-24: 0 contributions</title></circle><circle cx="791.2" cy="178.0" r="1.7" fill="#302c29" class="star"><title>2026-07-25: 0 contributions</title></circle><circle cx="807.4" cy="58.0" r="1.7" fill="#302c29" class="star"><title>2026-07-26: 0 contributions</title></circle><circle cx="807.4" cy="78.0" r="1.7" fill="#302c29" class="star"><title>2026-07-27: 0 contributions</title></circle><circle cx="807.4" cy="98.0" r="1.7" fill="#302c29" class="star"><title>2026-07-28: 0 contributions</title></circle><circle cx="807.4" cy="118.0" r="1.7" fill="#302c29" class="star"><title>2026-07-29: 0 contributions</title></circle><circle cx="807.4" cy="138.0" r="1.7" fill="#302c29" class="star"><title>2026-07-30: 0 contributions</title></circle><circle cx="807.4" cy="158.0" r="1.7" fill="#302c29" class="star"><title>2026-07-31: 0 contributions</title></circle><circle cx="807.4" cy="178.0" r="1.7" fill="#302c29" class="star"><title>2026-08-01: 0 contributions</title></circle><circle cx="823.6" cy="58.0" r="1.7" fill="#302c29" class="star"><title>2026-08-02: 0 contributions</title></circle><circle cx="823.6" cy="78.0" r="4.5" fill="#fff2bf" class="star active"><title>2026-08-03: 5 contributions</title></circle><circle cx="823.6" cy="98.0" r="1.7" fill="#302c29" class="star"><title>2026-08-04: 0 contributions</title></circle><circle cx="823.6" cy="118.0" r="1.7" fill="#302c29" class="star"><title>2026-08-05: 0 contributions</title></circle><circle cx="823.6" cy="138.0" r="1.7" fill="#302c29" class="star"><title>2026-08-06: 0 contributions</title></circle><circle cx="823.6" cy="158.0" r="1.7" fill="#302c29" class="star"><title>2026-08-07: 0 contributions</title></circle><circle cx="823.6" cy="178.0" r="1.7" fill="#302c29" class="star"><title>2026-08-08: 0 contributions</title></circle><circle cx="839.8" cy="58.0" r="1.7" fill="#302c29" class="star"><title>2026-08-09: 0 contributions</title></circle><circle cx="839.8" cy="78.0" r="1.7" fill="#302c29" class="star"><title>2026-08-10: 0 contributions</title></circle><circle cx="839.8" cy="98.0" r="1.7" fill="#302c29" class="star"><title>2026-08-11: 0 contributions</title></circle><circle cx="839.8" cy="118.0" r="1.7" fill="#302c29" class="star"><title>2026-08-12: 0 contributions</title></circle><circle cx="839.8" cy="138.0" r="1.7" fill="#302c29" class="star"><title>2026-08-13: 0 contributions</title></circle><circle cx="839.8" cy="158.0" r="1.7" fill="#302c29" class="star"><title>2026-08-14: 0 contributions</title></circle><circle cx="839.8" cy="178.0" r="1.7" fill="#302c29" class="star"><title>2026-08-15: 0 contributions</title></circle><circle cx="856.0" cy="58.0" r="1.7" fill="#302c29" class="star"><title>2026-08-16: 0 contributions</title></circle><circle cx="856.0" cy="78.0" r="1.7" fill="#302c29" class="star"><title>2026-08-17: 0 contributions</title></circle><circle cx="856.0" cy="98.0" r="1.7" fill="#302c29" class="star"><title>2026-08-18: 0 contributions</title></circle><circle cx="856.0" cy="118.0" r="1.7" fill="#302c29" class="star"><title>2026-08-19: 0 contributions</title></circle><circle cx="856.0" cy="138.0" r="1.7" fill="#302c29" class="star"><title>2026-08-20: 0 contributions</title></circle><circle cx="856.0" cy="158.0" r="1.7" fill="#302c29" class="star"><title>2026-08-21: 0 contributions</title></circle><circle cx="856.0" cy="178.0" r="1.7" fill="#302c29" class="star"><title>2026-08-22: 0 contributions</title></circle><circle cx="872.2" cy="58.0" r="1.7" fill="#302c29" class="star"><title>2026-08-23: 0 contributions</title></circle><circle cx="872.2" cy="78.0" r="1.7" fill="#302c29" class="star"><title>2026-08-24: 0 contributions</title></circle><circle cx="872.2" cy="98.0" r="1.7" fill="#302c29" class="star"><title>2026-08-25: 0 contributions</title></circle><circle cx="872.2" cy="118.0" r="1.7" fill="#302c29" class="star"><title>2026-08-26: 0 contributions</title></circle><circle cx="872.2" cy="138.0" r="1.7" fill="#302c29" class="star"><title>2026-08-27: 0 contributions</title></circle><circle cx="872.2" cy="158.0" r="1.7" fill="#302c29" class="star"><title>2026-08-28: 0 contributions</title></circle><circle cx="872.2" cy="178.0" r="1.7" fill="#302c29" class="star"><title>2026-08-29: 0 contributions</title></circle><circle cx="888.4" cy="58.0" r="1.7" fill="#302c29" class="star"><title>2026-08-30: 0 contributions</title></circle><circle cx="888.4" cy="78.0" r="1.7" fill="#302c29" class="star"><title>2026-08-31: 0 contributions</title></circle><circle cx="888.4" cy="98.0" r="1.7" fill="#302c29" class="star"><title>2026-09-01: 0 contributions</title></circle><circle cx="888.4" cy="118.0" r="1.7" fill="#302c29" class="star"><title>2026-09-02: 0 contributions</title></circle><circle cx="888.4" cy="138.0" r="1.7" fill="#302c29" class="star"><title>2026-09-03: 0 contributions</title></circle></g>
  <text x="32" y="222" class="meta">Every active day adds another star.</text>
</svg>